<mxfile host="app.diagrams.net" agent="Mozilla/5.0 (Windows NT 10.0; Win64; x64) AppleWebKit/537.36 (KHTML, like Gecko) Chrome/128.0.0.0 Safari/537.36" version="24.7.12">
  <diagram name="Page-1" id="AyfrHxBBWOeG0yEJsJHP">
    <mxGraphModel dx="3187" dy="1640" grid="1" gridSize="10" guides="1" tooltips="1" connect="1" arrows="1" fold="1" page="1" pageScale="1" pageWidth="3300" pageHeight="4681" math="0" shadow="0">
      <root>
        <mxCell id="0" />
        <mxCell id="1" parent="0" />
        <mxCell id="fxcMHlg3963PYamcU3pc-6" style="edgeStyle=orthogonalEdgeStyle;rounded=0;orthogonalLoop=1;jettySize=auto;html=1;exitX=1;exitY=0.5;exitDx=0;exitDy=0;" edge="1" parent="1" source="fxcMHlg3963PYamcU3pc-1">
          <mxGeometry relative="1" as="geometry">
            <mxPoint x="780" y="340" as="targetPoint" />
          </mxGeometry>
        </mxCell>
        <mxCell id="fxcMHlg3963PYamcU3pc-1" value="Loads payment onto the online banking platform" style="rounded=1;whiteSpace=wrap;html=1;absoluteArcSize=1;arcSize=14;strokeWidth=2;" vertex="1" parent="1">
          <mxGeometry x="530" y="290" width="150" height="100" as="geometry" />
        </mxCell>
        <mxCell id="fxcMHlg3963PYamcU3pc-2" value="" style="ellipse;html=1;shape=startState;fillColor=#000000;strokeColor=#ff0000;" vertex="1" parent="1">
          <mxGeometry x="590" y="200" width="30" height="30" as="geometry" />
        </mxCell>
        <mxCell id="fxcMHlg3963PYamcU3pc-3" value="" style="edgeStyle=orthogonalEdgeStyle;html=1;verticalAlign=bottom;endArrow=open;endSize=8;strokeColor=#ff0000;rounded=0;" edge="1" source="fxcMHlg3963PYamcU3pc-2" parent="1">
          <mxGeometry relative="1" as="geometry">
            <mxPoint x="605" y="290" as="targetPoint" />
          </mxGeometry>
        </mxCell>
        <mxCell id="fxcMHlg3963PYamcU3pc-4" value="Start" style="text;html=1;align=center;verticalAlign=middle;resizable=0;points=[];autosize=1;strokeColor=none;fillColor=none;" vertex="1" parent="1">
          <mxGeometry x="580" y="170" width="50" height="30" as="geometry" />
        </mxCell>
        <mxCell id="fxcMHlg3963PYamcU3pc-5" value="Accounts Payable Clerk" style="text;html=1;align=center;verticalAlign=middle;resizable=0;points=[];autosize=1;strokeColor=none;fillColor=none;" vertex="1" parent="1">
          <mxGeometry x="610" y="240" width="150" height="30" as="geometry" />
        </mxCell>
        <mxCell id="fxcMHlg3963PYamcU3pc-8" style="edgeStyle=orthogonalEdgeStyle;rounded=0;orthogonalLoop=1;jettySize=auto;html=1;exitX=1;exitY=0.5;exitDx=0;exitDy=0;" edge="1" parent="1" source="fxcMHlg3963PYamcU3pc-7">
          <mxGeometry relative="1" as="geometry">
            <mxPoint x="1050" y="340" as="targetPoint" />
          </mxGeometry>
        </mxCell>
        <mxCell id="fxcMHlg3963PYamcU3pc-7" value="Payments authorised by the relevant authorisers" style="rounded=1;whiteSpace=wrap;html=1;absoluteArcSize=1;arcSize=14;strokeWidth=2;" vertex="1" parent="1">
          <mxGeometry x="780" y="290" width="150" height="100" as="geometry" />
        </mxCell>
        <mxCell id="fxcMHlg3963PYamcU3pc-10" style="edgeStyle=orthogonalEdgeStyle;rounded=0;orthogonalLoop=1;jettySize=auto;html=1;exitX=0.5;exitY=1;exitDx=0;exitDy=0;" edge="1" parent="1" source="fxcMHlg3963PYamcU3pc-9">
          <mxGeometry relative="1" as="geometry">
            <mxPoint x="1125" y="470" as="targetPoint" />
          </mxGeometry>
        </mxCell>
        <mxCell id="fxcMHlg3963PYamcU3pc-9" value="Payment processed according to finance&lt;br&gt;procedures" style="rounded=1;whiteSpace=wrap;html=1;absoluteArcSize=1;arcSize=14;strokeWidth=2;" vertex="1" parent="1">
          <mxGeometry x="1050" y="290" width="150" height="100" as="geometry" />
        </mxCell>
        <mxCell id="fxcMHlg3963PYamcU3pc-13" style="edgeStyle=orthogonalEdgeStyle;rounded=0;orthogonalLoop=1;jettySize=auto;html=1;exitX=0;exitY=0.5;exitDx=0;exitDy=0;" edge="1" parent="1">
          <mxGeometry relative="1" as="geometry">
            <mxPoint x="930" y="518" as="targetPoint" />
            <mxPoint x="1050" y="518" as="sourcePoint" />
          </mxGeometry>
        </mxCell>
        <mxCell id="fxcMHlg3963PYamcU3pc-11" value="Scans and emails proof of payment to the bank" style="rounded=1;whiteSpace=wrap;html=1;absoluteArcSize=1;arcSize=14;strokeWidth=2;" vertex="1" parent="1">
          <mxGeometry x="1050" y="470" width="150" height="100" as="geometry" />
        </mxCell>
        <mxCell id="fxcMHlg3963PYamcU3pc-12" value="Claims Administrator" style="text;html=1;align=center;verticalAlign=middle;resizable=0;points=[];autosize=1;strokeColor=none;fillColor=none;" vertex="1" parent="1">
          <mxGeometry x="1120" y="420" width="130" height="30" as="geometry" />
        </mxCell>
        <mxCell id="fxcMHlg3963PYamcU3pc-15" style="edgeStyle=orthogonalEdgeStyle;rounded=0;orthogonalLoop=1;jettySize=auto;html=1;exitX=0;exitY=0.5;exitDx=0;exitDy=0;" edge="1" parent="1" source="fxcMHlg3963PYamcU3pc-14">
          <mxGeometry relative="1" as="geometry">
            <mxPoint x="680" y="520" as="targetPoint" />
          </mxGeometry>
        </mxCell>
        <mxCell id="fxcMHlg3963PYamcU3pc-14" value="Attaches the proof of payment to the document&lt;br&gt;management system" style="rounded=1;whiteSpace=wrap;html=1;absoluteArcSize=1;arcSize=14;strokeWidth=2;" vertex="1" parent="1">
          <mxGeometry x="780" y="470" width="150" height="100" as="geometry" />
        </mxCell>
        <mxCell id="fxcMHlg3963PYamcU3pc-17" style="edgeStyle=orthogonalEdgeStyle;rounded=0;orthogonalLoop=1;jettySize=auto;html=1;exitX=0.5;exitY=1;exitDx=0;exitDy=0;" edge="1" parent="1">
          <mxGeometry relative="1" as="geometry">
            <mxPoint x="604" y="650" as="targetPoint" />
            <mxPoint x="604" y="570" as="sourcePoint" />
          </mxGeometry>
        </mxCell>
        <mxCell id="fxcMHlg3963PYamcU3pc-16" value="Sends physical document for&amp;nbsp; off-site storage" style="rounded=1;whiteSpace=wrap;html=1;absoluteArcSize=1;arcSize=14;strokeWidth=2;" vertex="1" parent="1">
          <mxGeometry x="530" y="470" width="150" height="100" as="geometry" />
        </mxCell>
        <mxCell id="fxcMHlg3963PYamcU3pc-19" style="edgeStyle=orthogonalEdgeStyle;rounded=0;orthogonalLoop=1;jettySize=auto;html=1;exitX=1;exitY=0.5;exitDx=0;exitDy=0;" edge="1" parent="1" source="fxcMHlg3963PYamcU3pc-18">
          <mxGeometry relative="1" as="geometry">
            <mxPoint x="780" y="700" as="targetPoint" />
          </mxGeometry>
        </mxCell>
        <mxCell id="fxcMHlg3963PYamcU3pc-18" value="Registers the claim in the&amp;nbsp;&lt;br&gt;claims paid register and closes claim" style="rounded=1;whiteSpace=wrap;html=1;absoluteArcSize=1;arcSize=14;strokeWidth=2;" vertex="1" parent="1">
          <mxGeometry x="530" y="650" width="150" height="100" as="geometry" />
        </mxCell>
        <mxCell id="fxcMHlg3963PYamcU3pc-20" value="" style="ellipse;html=1;shape=endState;fillColor=#000000;strokeColor=#ff0000;" vertex="1" parent="1">
          <mxGeometry x="780" y="680" width="40" height="40" as="geometry" />
        </mxCell>
        <mxCell id="fxcMHlg3963PYamcU3pc-21" value="End" style="text;html=1;align=center;verticalAlign=middle;resizable=0;points=[];autosize=1;strokeColor=none;fillColor=none;" vertex="1" parent="1">
          <mxGeometry x="830" y="685" width="40" height="30" as="geometry" />
        </mxCell>
      </root>
    </mxGraphModel>
  </diagram>
</mxfile>
